<?xml version="1.0" encoding="UTF-8" standalone="no"?>
<!DOCTYPE svg PUBLIC "-//W3C//DTD SVG 1.1//EN"
 "http://www.w3.org/Graphics/SVG/1.1/DTD/svg11.dtd">
<!-- Generated by graphviz version 2.43.0 (0)
 -->
<!-- Title: g Pages: 1 -->
<svg width="156pt" height="332pt"
 viewBox="0.00 0.00 156.29 332.00" xmlns="http://www.w3.org/2000/svg" xmlns:xlink="http://www.w3.org/1999/xlink">
<g id="graph0" class="graph" transform="scale(1 1) rotate(0) translate(4 328)">
<title>g</title>
<polygon fill="white" stroke="transparent" points="-4,4 -4,-328 152.29,-328 152.29,4 -4,4"/>
<!-- broadcaster -->
<g id="node1" class="node">
<title>broadcaster</title>
<ellipse fill="#ff80ff" stroke="black" cx="82" cy="-306" rx="66.09" ry="18"/>
<text text-anchor="middle" x="82" y="-302.3" font-family="Times,serif" font-size="14.00">broadcaster</text>
</g>
<!-- a -->
<g id="node2" class="node">
<title>a</title>
<ellipse fill="#ffff80" stroke="black" cx="27" cy="-234" rx="27" ry="18"/>
<text text-anchor="middle" x="27" y="-230.3" font-family="Times,serif" font-size="14.00">a</text>
</g>
<!-- broadcaster&#45;&gt;a -->
<g id="edge1" class="edge">
<title>broadcaster&#45;&gt;a</title>
<path fill="none" stroke="black" d="M68.69,-288.05C61.7,-279.17 53.04,-268.14 45.42,-258.45"/>
<polygon fill="black" stroke="black" points="48,-256.06 39.07,-250.36 42.49,-260.38 48,-256.06"/>
</g>
<!-- b -->
<g id="node3" class="node">
<title>b</title>
<ellipse fill="#ffff80" stroke="black" cx="73" cy="-162" rx="27" ry="18"/>
<text text-anchor="middle" x="73" y="-158.3" font-family="Times,serif" font-size="14.00">b</text>
</g>
<!-- broadcaster&#45;&gt;b -->
<g id="edge2" class="edge">
<title>broadcaster&#45;&gt;b</title>
<path fill="none" stroke="black" d="M80.91,-287.87C79.38,-263.67 76.56,-219.21 74.74,-190.39"/>
<polygon fill="black" stroke="black" points="78.22,-189.95 74.09,-180.19 71.23,-190.39 78.22,-189.95"/>
</g>
<!-- c -->
<g id="node4" class="node">
<title>c</title>
<ellipse fill="#ffff80" stroke="black" cx="73" cy="-90" rx="27" ry="18"/>
<text text-anchor="middle" x="73" y="-86.3" font-family="Times,serif" font-size="14.00">c</text>
</g>
<!-- broadcaster&#45;&gt;c -->
<g id="edge3" class="edge">
<title>broadcaster&#45;&gt;c</title>
<path fill="none" stroke="black" d="M90.02,-287.74C102.76,-257.88 124.66,-194.93 109,-144 105.71,-133.31 99.46,-122.85 93.07,-114.08"/>
<polygon fill="black" stroke="black" points="95.65,-111.69 86.75,-105.93 90.12,-115.98 95.65,-111.69"/>
</g>
<!-- a&#45;&gt;b -->
<g id="edge5" class="edge">
<title>a&#45;&gt;b</title>
<path fill="none" stroke="black" d="M37.44,-217.12C43.2,-208.34 50.48,-197.26 56.96,-187.42"/>
<polygon fill="black" stroke="black" points="60.04,-189.1 62.6,-178.82 54.19,-185.26 60.04,-189.1"/>
</g>
<!-- b&#45;&gt;c -->
<g id="edge4" class="edge">
<title>b&#45;&gt;c</title>
<path fill="none" stroke="black" d="M73,-143.7C73,-135.98 73,-126.71 73,-118.11"/>
<polygon fill="black" stroke="black" points="76.5,-118.1 73,-108.1 69.5,-118.1 76.5,-118.1"/>
</g>
<!-- in -->
<g id="node5" class="node">
<title>in</title>
<ellipse fill="#80ffff" stroke="black" cx="45" cy="-18" rx="27" ry="18"/>
<text text-anchor="middle" x="45" y="-14.3" font-family="Times,serif" font-size="14.00">in</text>
</g>
<!-- c&#45;&gt;in -->
<g id="edge7" class="edge">
<title>c&#45;&gt;in</title>
<path fill="none" stroke="black" d="M66.36,-72.41C63.09,-64.22 59.06,-54.14 55.38,-44.95"/>
<polygon fill="black" stroke="black" points="58.55,-43.45 51.59,-35.47 52.05,-46.05 58.55,-43.45"/>
</g>
<!-- in&#45;&gt;a -->
<g id="edge6" class="edge">
<title>in&#45;&gt;a</title>
<path fill="none" stroke="black" d="M42.02,-36.14C40.32,-46.49 38.28,-59.97 37,-72 32.05,-118.58 29.3,-173.03 27.99,-205.18"/>
<polygon fill="black" stroke="black" points="24.47,-205.44 27.58,-215.57 31.47,-205.71 24.47,-205.44"/>
</g>
</g>
</svg>
