<?xml version="1.0" encoding="UTF-8" standalone="no"?>
<!DOCTYPE svg PUBLIC "-//W3C//DTD SVG 1.1//EN"
 "http://www.w3.org/Graphics/SVG/1.1/DTD/svg11.dtd">
<!-- Generated by graphviz version 2.43.0 (0)
 -->
<!-- Title: g Pages: 1 -->
<svg width="141pt" height="404pt"
 viewBox="0.00 0.00 140.59 404.00" xmlns="http://www.w3.org/2000/svg" xmlns:xlink="http://www.w3.org/1999/xlink">
<g id="graph0" class="graph" transform="scale(1 1) rotate(0) translate(4 400)">
<title>g</title>
<polygon fill="white" stroke="transparent" points="-4,4 -4,-400 136.59,-400 136.59,4 -4,4"/>
<!-- broadcaster -->
<g id="node1" class="node">
<title>broadcaster</title>
<ellipse fill="#ff80ff" stroke="black" cx="66.29" cy="-378" rx="66.09" ry="18"/>
<text text-anchor="middle" x="66.29" y="-374.3" font-family="Times,serif" font-size="14.00">broadcaster</text>
</g>
<!-- a -->
<g id="node2" class="node">
<title>a</title>
<ellipse fill="#ffff80" stroke="black" cx="66.29" cy="-306" rx="27" ry="18"/>
<text text-anchor="middle" x="66.29" y="-302.3" font-family="Times,serif" font-size="14.00">a</text>
</g>
<!-- broadcaster&#45;&gt;a -->
<g id="edge1" class="edge">
<title>broadcaster&#45;&gt;a</title>
<path fill="none" stroke="black" d="M66.29,-359.7C66.29,-351.98 66.29,-342.71 66.29,-334.11"/>
<polygon fill="black" stroke="black" points="69.79,-334.1 66.29,-324.1 62.79,-334.1 69.79,-334.1"/>
</g>
<!-- in -->
<g id="node3" class="node">
<title>in</title>
<ellipse fill="#80ffff" stroke="black" cx="39.29" cy="-234" rx="27" ry="18"/>
<text text-anchor="middle" x="39.29" y="-230.3" font-family="Times,serif" font-size="14.00">in</text>
</g>
<!-- a&#45;&gt;in -->
<g id="edge3" class="edge">
<title>a&#45;&gt;in</title>
<path fill="none" stroke="black" d="M59.9,-288.41C56.78,-280.34 52.96,-270.43 49.46,-261.35"/>
<polygon fill="black" stroke="black" points="52.7,-260.03 45.83,-251.96 46.17,-262.55 52.7,-260.03"/>
</g>
<!-- co -->
<g id="node6" class="node">
<title>co</title>
<ellipse fill="#80ffff" stroke="black" cx="66.29" cy="-90" rx="27" ry="18"/>
<text text-anchor="middle" x="66.29" y="-86.3" font-family="Times,serif" font-size="14.00">co</text>
</g>
<!-- a&#45;&gt;co -->
<g id="edge4" class="edge">
<title>a&#45;&gt;co</title>
<path fill="none" stroke="black" d="M69.95,-287.91C71.97,-277.57 74.27,-264.09 75.29,-252 79.33,-204.17 79.33,-191.83 75.29,-144 74.58,-135.5 73.23,-126.31 71.78,-118.01"/>
<polygon fill="black" stroke="black" points="75.21,-117.29 69.95,-108.09 68.33,-118.56 75.21,-117.29"/>
</g>
<!-- b -->
<g id="node4" class="node">
<title>b</title>
<ellipse fill="#ffff80" stroke="black" cx="39.29" cy="-162" rx="27" ry="18"/>
<text text-anchor="middle" x="39.29" y="-158.3" font-family="Times,serif" font-size="14.00">b</text>
</g>
<!-- in&#45;&gt;b -->
<g id="edge2" class="edge">
<title>in&#45;&gt;b</title>
<path fill="none" stroke="black" d="M39.29,-215.7C39.29,-207.98 39.29,-198.71 39.29,-190.11"/>
<polygon fill="black" stroke="black" points="42.79,-190.1 39.29,-180.1 35.79,-190.1 42.79,-190.1"/>
</g>
<!-- b&#45;&gt;co -->
<g id="edge6" class="edge">
<title>b&#45;&gt;co</title>
<path fill="none" stroke="black" d="M45.69,-144.41C48.81,-136.34 52.63,-126.43 56.13,-117.35"/>
<polygon fill="black" stroke="black" points="59.42,-118.55 59.75,-107.96 52.89,-116.03 59.42,-118.55"/>
</g>
<!-- rx -->
<g id="node5" class="node">
<title>rx</title>
<ellipse fill="#80ff80" stroke="black" cx="66.29" cy="-18" rx="27" ry="18"/>
<text text-anchor="middle" x="66.29" y="-14.3" font-family="Times,serif" font-size="14.00">rx</text>
</g>
<!-- co&#45;&gt;rx -->
<g id="edge5" class="edge">
<title>co&#45;&gt;rx</title>
<path fill="none" stroke="black" d="M66.29,-71.7C66.29,-63.98 66.29,-54.71 66.29,-46.11"/>
<polygon fill="black" stroke="black" points="69.79,-46.1 66.29,-36.1 62.79,-46.1 69.79,-46.1"/>
</g>
</g>
</svg>
